<?xml version="1.0" standalone="no"?>
<!DOCTYPE svg PUBLIC "-//W3C//DTD SVG 20010904//EN"
 "http://www.w3.org/TR/2001/REC-SVG-20010904/DTD/svg10.dtd">
<svg version="1.0" xmlns="http://www.w3.org/2000/svg"
 width="500.000000pt" height="500.000000pt" viewBox="0 0 500.000000 500.000000"
 preserveAspectRatio="xMidYMid meet">
<metadata>
Created by potrace 1.11, written by Peter Selinger 2001-2013
</metadata>
<g transform="translate(0.000000,500.000000) scale(0.100000,-0.100000)"
fill="#000000" stroke="none">
<path d="M279 4986 c-92 -25 -189 -100 -231 -180 -50 -98 -48 28 -45 -2326 l2
-2195 32 -65 c41 -84 102 -145 183 -184 l65 -31 2215 0 2215 0 65 31 c82 39
144 101 184 184 l31 65 0 2215 0 2215 -32 66 c-55 112 -145 183 -261 208 -80
17 -4360 14 -4423 -3z"/>
</g>
</svg>
